<svg version="1.1" id="Layer_1" xmlns="http://www.w3.org/2000/svg" xmlns:xlink="http://www.w3.org/1999/xlink" x="0px" y="0px"
	 viewBox="0 0 496.2 496.2" style="enable-background:new 0 0 496.2 496.2;" xml:space="preserve">


<style>
.sun { fill:#FABD2F }
.moon { fill:#EBDBB2 }
.sky { fill:#458588 }
.nightsky { fill:#282828}
</style>

<path class="sky" d="M0,248.1C0,111.1,111.1,0,248.1,0s248.1,111.1,248.1,248.1S385.1,496.2,248.1,496.2S0,385.1,0,248.1z "/>
<path class="nightsky" d="M248.1,0c137,0,248.1,111.1,248.1,248.1S385.1,496.2,248.1,496.2V0z"/>
<path class="sky" d="M0,248.1C0,111.1,111.1,0,248.1,0v496.2C111.1,496.2,0,385.1,0,248.1z"/>
<path class="moon" d="M120,248.1c0-70.8,57.4-128.1,128.1-128.1c70.8,0,128.1,57.4,128.1,128.1s-57.4,128.1-128.1,128.1
	C177.3,376.2,120,318.9,120,248.1z"/>
<g>
	<path class="sun" d="M120,248.1c0-70.8,57.4-128.1,128.1-128.1v256.2C177.3,376.2,120,318.9,120,248.1z"/>
	<path class="sun" d="M61.6,213l48.4,10.3c0.5-3,1.2-5.9,1.9-8.8l-48.5-10.3c-2.4-0.5-4.8,1-5.3,3.5
		C57.6,210.1,59.1,212.5,61.6,213z"/>
	<path class="sun" d="M138.9,403.3c-1.4,2.1-0.8,4.9,1.2,6.2c1,0.7,2.2,0.9,3.4,0.7c1.1-0.2,2.2-0.9,2.9-1.9l27.6-41.2
		c-2.5-1.6-5-3.3-7.5-5L138.9,403.3z"/>
	<path class="sun" d="M86.5,347.6c-2.1,1.4-2.7,4.1-1.3,6.2c1,1.6,2.9,2.3,4.7,2c0.5-0.1,1.1-0.3,1.6-0.6l41.6-27
		c-1.7-2.5-3.3-5-4.9-7.5L86.5,347.6z"/>
	<path class="sun" d="M204.2,432.7c-0.5,2.4,1,4.8,3.5,5.3c0.6,0.1,1.2,0.1,1.8,0c1.7-0.3,3.1-1.7,3.5-3.5l10.3-48.5
		c-3-0.5-5.9-1.2-8.8-1.9L204.2,432.7z"/>
	<path class="sun" d="M142.4,85.2c-2.1,1.4-2.7,4.1-1.3,6.2l27,41.6c2.5-1.7,5-3.3,7.5-4.9l-27-41.6
		C147.2,84.4,144.4,83.8,142.4,85.2z"/>
	<path class="sun" d="M86.7,140.1c-1.4,2.1-0.8,4.9,1.2,6.2l41.2,27.6c1.6-2.5,3.3-5,5-7.5l-41.2-27.6
		C90.8,137.5,88,138,86.7,140.1z"/>
	<path class="sun" d="M110.5,275.4c-0.3-1.5-0.6-3-0.8-4.4l-48.6,9.6c-2.4,0.5-4,2.9-3.5,5.3s2.9,4,5.3,3.5l48.6-9.6
		C111.2,278.3,110.8,276.9,110.5,275.4z"/>
	<path class="sun" d="M216.4,111.5c1.5-0.3,2.9-0.7,4.4-1s3-0.6,4.4-0.8l-9.6-48.6c-0.5-2.4-2.9-4-5.3-3.5s-4,2.9-3.5,5.3
		L216.4,111.5z"/>
</g>
</svg>
